<?xml version="1.0" encoding="utf-8"?>
<!-- Generator: Adobe Illustrator 21.0.0, SVG Export Plug-In . SVG Version: 6.00 Build 0)  -->
<svg version="1.1" id="Camada_1" xmlns="http://www.w3.org/2000/svg" xmlns:xlink="http://www.w3.org/1999/xlink" x="0px" y="0px"
	 viewBox="0 0 218.9 74.1" style="enable-background:new 0 0 218.9 74.1;" xml:space="preserve">
<style type="text/css">
	.st0{enable-background:new    ;}
	.st1{fill:#990000;}
</style>
<title>logo</title>
<g class="st0">
	<path class="st1" d="M49.1,56.4c-7.1,0-9.9-2.8-9.9-10.3V26.4l-6.7-0.6v-6.2h6.7v-9.1h8.4v9.1h8.7v6.7h-8.7v19.6
		c0,3.3,0.3,3.9,3.3,3.9c1.8,0,4.4-0.1,5.4-0.3v5.7C55.3,55.6,52.2,56.4,49.1,56.4z"/>
	<path class="st1" d="M65,14.1V6h8.6v8.1H65z M65,55.4V19.6h8.5v35.8H65z"/>
	<path class="st1" d="M98.6,56.4c-10.3,0-15.1-5.8-15.1-16.6v-4.5c0-10.9,4.8-16.5,15.1-16.5c5.5,0,9.4,0.8,11.1,1.3v6.4
		c-4.5-0.4-7.6-0.6-9.6-0.6c-5.2,0-8.1,1.7-8.1,9.4v4.5c0,7.7,2.9,9.5,8.1,9.5c2,0,5.1-0.2,9.6-0.6V55
		C108,55.5,104.1,56.4,98.6,56.4z"/>
</g>
<g class="st0">
	<path class="st1" d="M139.7,55.4l-12.7-17v17h-8.3V6h8.3v29.6l12.7-16h9.6l-13.9,17.2l14.2,18.6H139.7z"/>
</g>
<g class="st0">
	<path class="st1" d="M162.1,40.2v0.6c0,5.2,0.8,8.6,9.5,8.6c3.8,0,8.2-0.4,12.9-0.8v6.3c-2.7,0.6-7.3,1.5-13.3,1.5
		c-12.9,0-17.5-5-17.5-17.5v-2.2c0-12,5.5-17.9,16.1-17.9c12,0,16.2,7.8,16.2,18.6v2.8H162.1z M177.7,34.1c0-4.1-0.8-8.6-7.8-8.6
		c-6.7,0-7.8,4.6-7.8,8.6v0.6h15.5V34.1z"/>
</g>
<g class="st0">
	<path class="st1" d="M207.8,56.4c-7.1,0-9.9-2.8-9.9-10.3V26.4l-6.7-0.6v-6.2h6.7v-9.1h8.4v9.1h8.7v6.7h-8.7v19.6
		c0,3.3,0.3,3.9,3.3,3.9c1.8,0,4.4-0.1,5.4-0.3v5.7C214.1,55.6,211,56.4,207.8,56.4z"/>
</g>
<path class="st1" d="M24.5,14.5H27c0.2,0,0.4,0.1,0.5,0.2V6.9c-1.7,0-3.2-1.3-3.4-3h-6.9c-0.3,1.9-2,3.2-3.9,2.9
	c-1.5-0.2-2.7-1.4-2.9-2.9H3.5c-0.2,1.7-1.7,3-3.4,3v7.8h0.2h2.5c0.3,0,0.5,0.2,0.6,0.5c0,0,0,0,0,0c0,0.3-0.2,0.5-0.5,0.5H2.7H0.2
	H0.1L0,56.9c1.7,0,3.2,1.3,3.4,3h6.9c0.3-1.9,2-3.2,3.9-2.9c1.5,0.2,2.7,1.4,2.9,2.9H24c0.2-1.7,1.7-3,3.4-3l0.1-41.8
	c-0.1,0.2-0.3,0.3-0.4,0.3h-0.1h-2.4c-0.3,0-0.5-0.2-0.6-0.5c0,0,0,0,0,0C24,14.7,24.2,14.5,24.5,14.5z M14.9,14.5h2.5
	c0.3,0,0.5,0.2,0.6,0.4c0,0,0,0,0,0.1c0,0.3-0.2,0.5-0.5,0.5h-0.1h-2.5c-0.3,0-0.5-0.2-0.5-0.4c0,0,0,0,0-0.1
	C14.3,14.7,14.6,14.5,14.9,14.5z M22.1,19v3.6h-8.9c-1-0.1-2,0.2-2.8,0.9c-0.7,0.6-1.1,1.5-1,2.5c0,0.9,0.3,1.9,1,2.5
	c0.8,0.7,1.8,1.1,2.9,1H22v3.7H6.3v-3.6h2.5C8.4,29.3,8,29,7.7,28.7c-0.3-0.3-0.6-0.7-0.9-1.1c-0.3-0.4-0.5-0.9-0.6-1.3
	C6.1,25.8,6,25.2,6,24.6c-0.1-1.6,0.5-3.1,1.6-4.1c1.2-1,2.8-1.6,4.4-1.5H22.1z M10,14.5h2.5c0.3,0,0.5,0.2,0.6,0.4c0,0,0,0,0,0.1
	c0,0.3-0.2,0.5-0.5,0.5h-0.1H10c-0.3,0.1-0.5-0.1-0.6-0.4c0,0,0-0.1,0-0.1C9.5,14.7,9.7,14.5,10,14.5z M4.6,15
	c0.1-0.3,0.3-0.5,0.6-0.5h2.5c0.3,0,0.5,0.2,0.5,0.4c0,0,0,0,0,0.1c0,0.3-0.2,0.5-0.5,0.5H7.6H5.1C4.8,15.5,4.6,15.3,4.6,15
	C4.6,15,4.6,15,4.6,15z M5.3,42.8h6.4v2.3H5.3V42.8z M21.8,47.4c-0.4,1-1,1.9-1.8,2.6c-0.7,0.7-1.6,1.3-2.6,1.8
	c-1,0.4-2.1,0.6-3.2,0.6h-0.1c-1.1,0-2.2-0.2-3.2-0.6c-1-0.4-1.8-1-2.6-1.8c-0.8-0.8-1.4-1.7-1.8-2.7c-0.2-0.5-0.4-1-0.5-1.6h3.3
	c0,0.1,0.1,0.1,0.1,0.2c0.3,0.6,0.6,1.1,1.1,1.5c0.5,0.4,1,0.8,1.6,1c0.6,0.2,1.3,0.3,1.9,0.3h0.1c1.3,0,2.6-0.5,3.6-1.3
	c0.5-0.4,0.8-0.9,1.1-1.5c0.3-0.6,0.4-1.3,0.4-2c0-0.7-0.1-1.4-0.4-2c-0.3-0.6-0.6-1.1-1.1-1.5c-0.5-0.4-1-0.8-1.6-1
	c-0.6-0.2-1.3-0.3-1.9-0.3h-0.1c-0.7,0-1.4,0.1-2,0.4C11,40,10,40.9,9.5,42l-0.1,0.1H6.1c0.1-0.5,0.3-1.1,0.5-1.6
	c0.4-1,1-1.8,1.8-2.6c1.5-1.5,3.6-2.4,5.8-2.4h0.1c1.1,0,2.2,0.2,3.2,0.6c2,0.8,3.6,2.4,4.4,4.4c0.4,1.1,0.7,2.2,0.7,3.4
	C22.4,45.2,22.2,46.3,21.8,47.4z M22.2,15.5h-0.1h-2.5c-0.3,0-0.5-0.2-0.5-0.4c0,0,0,0,0-0.1c0.1-0.3,0.3-0.5,0.6-0.5h2.5
	c0.3,0,0.5,0.2,0.6,0.5c0,0,0,0,0,0C22.7,15.3,22.5,15.5,22.2,15.5z"/>
</svg>
